<?xml version="1.0" encoding="UTF-8"?>
<svg version="1.1" xmlns="http://www.w3.org/2000/svg" width="500" height="500">
<path d="M0 0 C1.08725652 3.26176956 0.92829035 4.71582338 0.43690491 8.06587219 C0.2868248 9.11309448 0.13674469 10.16031677 -0.0178833 11.23927307 C-0.27574615 12.9622184 -0.27574615 12.9622184 -0.53881836 14.7199707 C-0.7142366 15.92996735 -0.88965485 17.13996399 -1.07038879 18.3866272 C-1.45305589 21.01936144 -1.8382558 23.65157714 -2.22779655 26.28328896 C-2.84401044 30.44695016 -3.45012649 34.61204261 -4.05482483 38.77738953 C-5.12204978 46.11969503 -6.19780044 53.46073226 -7.27545166 60.80151367 C-8.8962907 71.84276293 -10.51071325 82.88494656 -12.11673647 93.92836064 C-12.71881345 98.06611918 -13.32542409 102.20317995 -13.9356631 106.3397423 C-14.40431391 109.52329831 -14.86756526 112.70764134 -15.33178711 115.8918457 C-15.50167145 117.03440323 -15.67155579 118.17696075 -15.84658813 119.35414124 C-16.07593803 120.93766388 -16.07593803 120.93766388 -16.30992126 122.55317688 C-16.44395827 123.46554265 -16.57799528 124.37790842 -16.71609402 125.31792164 C-17.02430568 128.22961733 -17.0474475 131.07418622 -17 134 C-16.6189209 133.33806641 -16.2378418 132.67613281 -15.84521484 131.99414062 C-7.18829218 116.96156383 1.50872307 101.95347159 10.26171875 86.9765625 C12.02051627 83.96486876 13.77633606 80.95145816 15.53125 77.9375 C18.43088162 72.95761963 21.3361821 67.98108415 24.24462891 63.00634766 C25.44687097 60.94732001 26.64696126 58.88703489 27.84521484 56.82568359 C29.64200704 53.7351253 31.44534536 50.64847206 33.25 47.5625 C33.79922119 46.6142334 34.34844238 45.6659668 34.91430664 44.68896484 C35.67602173 43.39079834 35.67602173 43.39079834 36.453125 42.06640625 C36.89817383 41.30271729 37.34322266 40.53902832 37.80175781 39.75219727 C39 38 39 38 41 37 C38.31134615 60.78952099 34.99851987 84.49810011 31.7677002 108.21856689 C31.00191415 113.84408579 30.23836661 119.46990849 29.47460938 125.09570312 C27.98521677 136.06409416 26.49341157 147.0321555 25 158 C25.71481033 157.99738159 26.42962067 157.99476318 27.16609192 157.99206543 C42.01686915 157.94507942 56.84426991 158.02422474 71.6875 158.5 C73.29881704 158.5485464 74.91014527 158.59672282 76.52148438 158.64453125 C80.34779692 158.75882074 84.17392946 158.87788791 88 159 C86.55284351 163.70269205 84.6374385 168.06262397 82.47265625 172.46875 C81.95560875 173.53189423 81.95560875 173.53189423 81.42811584 174.61651611 C80.30996441 176.91284661 79.18636792 179.20646259 78.0625 181.5 C77.28543169 183.09266961 76.50857755 184.68544373 75.73193359 186.27832031 C71.15087613 195.66251662 66.51559607 205.01821315 61.81811523 214.34472656 C58.19656886 221.55346581 54.72411046 228.82883803 51.26416016 236.11621094 C47.76670852 243.45727415 44.1537005 250.73559636 40.5 258 C36.41253543 266.12694012 32.39870073 274.28080928 28.5 282.5 C24.07206586 291.83491379 19.47815974 301.07863545 14.8359375 310.30859375 C11.30993467 317.33553305 7.86937069 324.39673606 4.5 331.5 C0.08119465 340.8156686 -4.50246255 350.04072193 -9.13549805 359.25146484 C-14.57678133 370.09482085 -19.81290706 381.03318364 -25 392 C-25.66 391.67 -26.32 391.34 -27 391 C-26.90723282 390.36223601 -26.81446564 389.72447203 -26.71888733 389.06738186 C-24.45999194 373.53532842 -22.20659215 358.00248906 -19.95927429 342.46875668 C-18.87234834 334.95672415 -17.78357733 327.44496778 -16.69042969 319.93383789 C-15.73743399 313.38567337 -14.78793363 306.8370131 -13.84259319 300.28773886 C-13.34211655 296.82131672 -12.83991624 293.35516446 -12.33352661 289.88960075 C-11.7677185 286.01693839 -11.20971602 282.14317305 -10.65234375 278.26928711 C-10.39987381 276.55377403 -10.39987381 276.55377403 -10.14230347 274.80360413 C-9.38258771 269.47953187 -8.79676609 264.37876198 -9 259 C-17.46361813 273.17179789 -25.83427847 287.38558428 -33.98754883 301.73846436 C-39.71903343 311.82222005 -45.59430796 321.81424635 -51.52734375 331.78051758 C-56.10485593 339.47283338 -60.6149076 347.19626648 -65 355 C-65.66 354.67 -66.32 354.34 -67 354 C-61.72 314.73 -56.44 275.46 -51 235 C-80.205 234.505 -80.205 234.505 -110 234 C-111.32 233.67 -112.64 233.34 -114 233 C-112.49369207 228.00488538 -110.39278616 223.53947835 -108.03515625 218.91015625 C-107.64606583 218.13753952 -107.2569754 217.36492279 -106.85609436 216.56889343 C-106.02512171 214.91932175 -105.19244798 213.27060607 -104.35821533 211.62268066 C-102.17636507 207.31160191 -100.00782977 202.9938449 -97.83984375 198.67578125 C-97.41384888 197.82772919 -96.987854 196.97967712 -96.5489502 196.10592651 C-93.33133486 189.6889617 -90.19275885 183.24014803 -87.125 176.75 C-82.82764549 167.66285983 -78.35318835 158.67287382 -73.83666992 149.69287109 C-69.82070354 141.68954293 -65.93216004 133.63264108 -62.09375 125.54296875 C-58.81431315 118.65139857 -55.4307052 111.81739879 -52 105 C-48.14107905 97.33153649 -44.36481108 89.63216804 -40.6875 81.875 C-36.10111139 72.20457944 -31.33678182 62.62909703 -26.52835083 53.06796265 C-22.29735451 44.65174296 -18.15276614 36.20353372 -14.125 27.6875 C-9.68724065 18.30703737 -4.95588791 9.11638641 0 0 Z " fill="#0149AB" transform="translate(258,40)"/>
<path d="M0 0 C1.10911525 3.32734574 0.90599502 4.92084035 0.41912842 8.35612488 C0.18789024 10.02359268 0.18789024 10.02359268 -0.04801941 11.7247467 C-0.22456558 12.94504074 -0.40111176 14.16533478 -0.58300781 15.42260742 C-0.76336075 16.70742004 -0.94371368 17.99223267 -1.12953186 19.315979 C-1.62518656 22.84405272 -2.12978407 26.3707934 -2.63646412 29.89729857 C-3.05901755 32.8438889 -3.47726547 35.79108368 -3.89552665 38.73828584 C-4.88312918 45.69664145 -5.87799525 52.6539321 -6.87744141 59.6105957 C-7.90676535 66.77605821 -8.92437678 73.94311341 -9.93608022 81.11108321 C-10.8059012 87.27098204 -11.6828279 93.42984066 -12.56543803 99.58792001 C-13.09211236 103.26299637 -13.61618762 106.93839376 -14.13352203 110.61479759 C-14.71180992 114.72153354 -15.30492662 118.8259977 -15.89941406 122.93041992 C-16.06786331 124.1405928 -16.23631256 125.35076569 -16.40986633 126.59761047 C-17.58001872 134.56006029 -19.03648639 141.73682586 -23.84765625 148.3828125 C-27.07998711 153.03633172 -29.76667605 157.88358461 -32.4375 162.875 C-35.94158259 169.34027076 -39.51462935 175.66595004 -43.5625 181.80859375 C-44.605402 183.3984525 -45.59950778 185.020662 -46.5625 186.66015625 C-48 189 -48 189 -50 191 C-50.68032062 192.63276948 -51.3592881 194.26611653 -52.03125 195.90234375 C-53.112939 198.24454937 -54.39146417 200.36933178 -55.75 202.5625 C-58.31305733 206.7179894 -60.54737568 210.96575701 -62.703125 215.33984375 C-63.0223291 215.98304565 -63.3415332 216.62624756 -63.67041016 217.28894043 C-64.44890443 218.85832074 -65.22473055 220.42902413 -66 222 C-65.19820312 221.99476318 -64.39640625 221.98952637 -63.5703125 221.98413086 C-43.02257728 221.86910315 -22.5334016 222.22422036 -2 223 C-2.25382463 226.27237822 -2.53131736 229.54236808 -2.8125 232.8125 C-2.91788086 234.17665039 -2.91788086 234.17665039 -3.02539062 235.56835938 C-4.12967753 248.06888719 -7.91799233 257.43490944 -14.3125 268.1875 C-15.03289533 269.42022299 -15.75211384 270.65363439 -16.47021484 271.88769531 C-17.93206228 274.3952376 -19.40089171 276.8984597 -20.87646484 279.39794922 C-22.82328159 282.69618794 -24.75243398 286.00441384 -26.67578125 289.31640625 C-29.53500972 294.23806851 -32.40628222 299.15254361 -35.28222656 304.06445312 C-38.19360707 309.03978559 -41.09631574 314.02017339 -44 319 C-45.14839695 320.96877365 -46.29683459 322.93752357 -47.4453125 324.90625 C-48.30817871 326.38544922 -48.30817871 326.38544922 -49.18847656 327.89453125 C-57.09423828 341.44726562 -57.09423828 341.44726562 -65 355 C-65.66 354.67 -66.32 354.34 -67 354 C-61.72 314.73 -56.44 275.46 -51 235 C-80.205 234.505 -80.205 234.505 -110 234 C-111.32 233.67 -112.64 233.34 -114 233 C-112.49369207 228.00488538 -110.39278616 223.53947835 -108.03515625 218.91015625 C-107.64606583 218.13753952 -107.2569754 217.36492279 -106.85609436 216.56889343 C-106.02512171 214.91932175 -105.19244798 213.27060607 -104.35821533 211.62268066 C-102.17636507 207.31160191 -100.00782977 202.9938449 -97.83984375 198.67578125 C-97.41384888 197.82772919 -96.987854 196.97967712 -96.5489502 196.10592651 C-93.33133486 189.6889617 -90.19275885 183.24014803 -87.125 176.75 C-82.82764549 167.66285983 -78.35318835 158.67287382 -73.83666992 149.69287109 C-69.82070354 141.68954293 -65.93216004 133.63264108 -62.09375 125.54296875 C-58.81431315 118.65139857 -55.4307052 111.81739879 -52 105 C-48.14107905 97.33153649 -44.36481108 89.63216804 -40.6875 81.875 C-36.10111139 72.20457944 -31.33678182 62.62909703 -26.52835083 53.06796265 C-22.29735451 44.65174296 -18.15276614 36.20353372 -14.125 27.6875 C-9.68724065 18.30703737 -4.95588791 9.11638641 0 0 Z " fill="#E49C12" transform="translate(258,40)"/>
<path d="M0 0 C0.33 1.32 0.66 2.64 1 4 C0.34 4 -0.32 4 -1 4 C-1.33 7.96 -1.66 11.92 -2 16 C-0.68 16.33 0.64 16.66 2 17 C2 17.66 2 18.32 2 19 C19.16 19 36.32 19 54 19 C54 19.66 54 20.32 54 21 C32.64082194 21.13950428 11.3444034 20.80642039 -10 20 C-9.29842564 16.07052868 -8.25659422 13.39358284 -6.125 10 C-5.61195313 9.175 -5.09890625 8.35 -4.5703125 7.5 C-3.79300781 6.2625 -3.79300781 6.2625 -3 5 C-1.99660212 3.33537678 -0.9956129 1.66929109 0 0 Z " fill="#2C5179" transform="translate(202,242)"/>
<path d="M0 0 C10.56 0 21.12 0 32 0 C30.59428017 16.97677027 29.28465242 29.42436757 20 44 C19.67 42.68 19.34 41.36 19 40 C19.66 40 20.32 40 21 40 C21.66 37.69 22.32 35.38 23 33 C23.66 33 24.32 33 25 33 C25 31.35 25 29.7 25 28 C25.66 28 26.32 28 27 28 C26.98839844 27.14535156 26.97679687 26.29070312 26.96484375 25.41015625 C26.95582031 24.30542969 26.94679687 23.20070313 26.9375 22.0625 C26.92589844 20.96035156 26.91429687 19.85820312 26.90234375 18.72265625 C27 16 27 16 28 15 C28.66 10.71 29.32 6.42 30 2 C15.15 1.505 15.15 1.505 0 1 C0 0.67 0 0.34 0 0 Z " fill="#B69951" transform="translate(224,263)"/>
<path d="M0 0 C1.28761352 3.86284056 0.60396222 7.01924127 0.00390625 10.94921875 C-0.16468651 12.10814384 -0.16468651 12.10814384 -0.33668518 13.29048157 C-0.6970637 15.75717033 -1.06715446 18.22228997 -1.4375 20.6875 C-1.68358386 22.35993183 -1.92903433 24.03245698 -2.17382812 25.70507812 C-2.77520874 29.80450443 -3.38530351 33.90255011 -4 38 C-4.33 38 -4.66 38 -5 38 C-5.0270817 35.27076612 -5.04687847 32.54180363 -5.0625 29.8125 C-5.07506836 28.65911133 -5.07506836 28.65911133 -5.08789062 27.48242188 C-5.10491934 23.51473211 -4.98604115 19.87428766 -4 16 C-4.99 15.67 -5.98 15.34 -7 15 C-5.45454854 9.52067211 -2.84456788 4.88570819 0 0 Z " fill="#DE9C22" transform="translate(258,40)"/>
<path d="M0 0 C0.99 0 1.98 0 3 0 C0.96698752 5.30570975 -1.70285869 10.15486964 -4.4375 15.125 C-5.17323242 16.48431641 -5.17323242 16.48431641 -5.92382812 17.87109375 C-6.40142578 18.74121094 -6.87902344 19.61132812 -7.37109375 20.5078125 C-7.80349365 21.29816895 -8.23589355 22.08852539 -8.68139648 22.90283203 C-9.94502144 24.91255955 -11.25289257 26.4052176 -13 28 C-13.33 26.68 -13.66 25.36 -14 24 C-14.66 24 -15.32 24 -16 24 C-16 23.34 -16 22.68 -16 22 C-14.125 20.9375 -14.125 20.9375 -12 20 C-11.34 20.33 -10.68 20.66 -10 21 C-9.71125 20.2575 -9.4225 19.515 -9.125 18.75 C-8.17697356 16.43260203 -7.15154089 14.22082885 -6 12 C-6.66 11.67 -7.32 11.34 -8 11 C-7.34 10.34 -6.68 9.68 -6 9 C-5.01 9 -4.02 9 -3 9 C-3 7.68 -3 6.36 -3 5 C-2.34 5 -1.68 5 -1 5 C-0.67 3.35 -0.34 1.7 0 0 Z " fill="#CA9939" transform="translate(230,188)"/>
<path d="M0 0 C0.33 0 0.66 0 1 0 C1.33 2.64 1.66 5.28 2 8 C2.33 7.01 2.66 6.02 3 5 C3.66 5 4.32 5 5 5 C6.2421875 6.546875 6.2421875 6.546875 7 9 C5.82035284 11.62012083 4.63889271 13.83953006 3.125 16.25 C2.73441406 16.8996875 2.34382812 17.549375 1.94140625 18.21875 C0.97522285 19.82120052 -0.01056172 21.41180293 -1 23 C-1.66 22.67 -2.32 22.34 -3 22 C-2.01 14.74 -1.02 7.48 0 0 Z " fill="#DB9D26" transform="translate(194,372)"/>
<path d="M0 0 C0.33 0 0.66 0 1 0 C1.27733386 8.5511272 0.52016163 16.58481953 -1 25 C-0.01 24.67 0.98 24.34 2 24 C0.68938409 28.23429756 -0.94356259 32.07407404 -3 36 C-3.66 35.67 -4.32 35.34 -5 35 C-3.35 23.45 -1.7 11.9 0 0 Z " fill="#104A9A" transform="translate(236,396)"/>
<path d="M0 0 C1.08497475 3.25492424 0.92463702 4.76151185 0.44140625 8.10546875 C0.30283203 9.08837891 0.16425781 10.07128906 0.02148438 11.08398438 C-0.12998047 12.10814453 -0.28144531 13.13230469 -0.4375 14.1875 C-0.65889648 15.74114258 -0.65889648 15.74114258 -0.88476562 17.32617188 C-1.25032267 19.88507121 -1.62230318 22.44286908 -2 25 C-2.33 25 -2.66 25 -3 25 C-3.33 20.71 -3.66 16.42 -4 12 C-4.99 12.33 -5.98 12.66 -7 13 C-5.35821735 8.22390502 -2.73453298 4.20617096 0 0 Z " fill="#0C4A9C" transform="translate(298,77)"/>
<path d="M0 0 C0.33 0.66 0.66 1.32 1 2 C0.62488281 2.53367188 0.24976563 3.06734375 -0.13671875 3.6171875 C-3.50491879 8.52101527 -6.3290595 13.43404635 -8.82421875 18.8359375 C-9.98893837 20.97964072 -11.19047995 22.38342589 -13 24 C-13.1875 21.625 -13.1875 21.625 -13 19 C-12.01 18.34 -11.02 17.68 -10 17 C-9.21011855 15.04614933 -9.21011855 15.04614933 -8.8125 12.875 C-8.544375 11.59625 -8.27625 10.3175 -8 9 C-7.34 9 -6.68 9 -6 9 C-5.67 7.35 -5.34 5.7 -5 4 C-4.01 3.67 -3.02 3.34 -2 3 C-1.34 2.01 -0.68 1.02 0 0 Z " fill="#C79A3D" transform="translate(206,233)"/>
<path d="M0 0 C0.33 0 0.66 0 1 0 C1.33 5.28 1.66 10.56 2 16 C1.34 16 0.68 16 0 16 C-0.33 18.64 -0.66 21.28 -1 24 C-1.66 24 -2.32 24 -3 24 C-2.88509088 21.31173136 -2.75836801 18.62486531 -2.625 15.9375 C-2.5940625 15.18533203 -2.563125 14.43316406 -2.53125 13.65820312 C-2.27941541 8.81038719 -1.50831635 4.61691957 0 0 Z " fill="#1D4B93" transform="translate(252,288)"/>
<path d="M0 0 C1.24703266 3.74109799 0.45460854 4.44429023 -1 8 C-1.3813074 10.32597511 -1.72460254 12.65912158 -2 15 C-2.99 15.33 -3.98 15.66 -5 16 C-5.66 15.67 -6.32 15.34 -7 15 C-7.66 16.32 -8.32 17.64 -9 19 C-9 15.80971469 -8.57516922 14.88744656 -7.03125 12.20703125 C-6.62519531 11.49482422 -6.21914062 10.78261719 -5.80078125 10.04882812 C-5.37152344 9.31083984 -4.94226563 8.57285156 -4.5 7.8125 C-4.07074219 7.06291016 -3.64148438 6.31332031 -3.19921875 5.54101562 C-2.13853779 3.69071661 -1.07001077 1.84491937 0 0 Z " fill="#0E489B" transform="translate(256,148)"/>
<path d="M0 0 C0.33 0 0.66 0 1 0 C1.26651069 11.89303947 -1.39558338 19.23629525 -8 29 C-8.33 27.68 -8.66 26.36 -9 25 C-8.34 25 -7.68 25 -7 25 C-6.01 21.535 -6.01 21.535 -5 18 C-4.34 18 -3.68 18 -3 18 C-3 16.35 -3 14.7 -3 13 C-2.34 13 -1.68 13 -1 13 C-1.01160156 12.14535156 -1.02320313 11.29070312 -1.03515625 10.41015625 C-1.04417969 9.30542969 -1.05320313 8.20070313 -1.0625 7.0625 C-1.07410156 5.96035156 -1.08570313 4.85820312 -1.09765625 3.72265625 C-1 1 -1 1 0 0 Z " fill="#CE9B36" transform="translate(252,278)"/>
<path d="M0 0 C0.33 0 0.66 0 1 0 C1.22185844 2.26955186 1.42705515 4.54073755 1.625 6.8125 C1.74101562 8.07707031 1.85703125 9.34164063 1.9765625 10.64453125 C2 14 2 14 0 17 C-0.07905064 19.33199388 -0.08798769 21.66832622 0 24 C-0.66 24 -1.32 24 -2 24 C-2.33 24.99 -2.66 25.98 -3 27 C-2.48143798 17.897872 -1.53767346 8.98717886 0 0 Z " fill="#0D4694" transform="translate(244,341)"/>
<path d="M0 0 C0.12375 0.639375 0.2475 1.27875 0.375 1.9375 C0.684375 2.9584375 0.684375 2.9584375 1 4 C1.66 4.33 2.32 4.66 3 5 C1.68 5.33 0.36 5.66 -1 6 C-1.33 8.97 -1.66 11.94 -2 15 C-3.65 15.33 -5.3 15.66 -7 16 C-5.35433477 10.31497465 -2.70967216 5.23318364 0 0 Z " fill="#D99C27" transform="translate(250,55)"/>
<path d="M0 0 C0.33 0.66 0.66 1.32 1 2 C0.29296875 4.0234375 0.29296875 4.0234375 -0.8125 6.375 C-1.16957031 7.14585937 -1.52664062 7.91671875 -1.89453125 8.7109375 C-2.25933594 9.46632812 -2.62414062 10.22171875 -3 11 C-3.46986328 12.10214844 -3.46986328 12.10214844 -3.94921875 13.2265625 C-5 15 -5 15 -8 16 C-8 16.99 -8 17.98 -8 19 C-8.66 19 -9.32 19 -10 19 C-9.34206835 17.32986582 -8.67276716 15.6642135 -8 14 C-7.525625 12.80375 -7.05125 11.6075 -6.5625 10.375 C-5.1864627 7.40275942 -4.31979509 6.11807378 -2 4 C-0.82425289 1.90010348 -0.82425289 1.90010348 0 0 Z " fill="#305378" transform="translate(213,223)"/>
<path d="M0 0 C0.33 0.66 0.66 1.32 1 2 C0.67 2.721875 0.34 3.44375 0 4.1875 C-1.27708882 7.77931231 -0.72394597 10.30787557 0 14 C-2.97 13.505 -2.97 13.505 -6 13 C-6 13.99 -6 14.98 -6 16 C-6.66 16 -7.32 16 -8 16 C-6.42986223 10.03347646 -3.24970218 5.17090975 0 0 Z " fill="#144B8C" transform="translate(231,192)"/>
<path d="M0 0 C2 3.75 2 3.75 2 6 C0.66666667 7.33333333 -0.66666667 8.66666667 -2 10 C-2.33 10.99 -2.66 11.98 -3 13 C-3.66 13 -4.32 13 -5 13 C-5.144375 13.598125 -5.28875 14.19625 -5.4375 14.8125 C-5.8872439 16.56150404 -6.42892341 18.28677023 -7 20 C-7.66 20 -8.32 20 -9 20 C-7.55676531 15.26210835 -5.62773267 11.01141849 -3.375 6.625 C-2.88773438 5.66400391 -2.88773438 5.66400391 -2.390625 4.68359375 C-1.59742593 3.12052499 -0.79922969 1.55999378 0 0 Z " fill="#DE9D27" transform="translate(186,186)"/>
<path d="M0 0 C-1.49170266 4.9723422 -3.60457417 9.41845739 -6 14 C-7.4606285 11.35261084 -8 10.10551666 -8 7 C-7.34 7 -6.68 7 -6 7 C-5.87625 6.030625 -5.7525 5.06125 -5.625 4.0625 C-5.41875 3.051875 -5.2125 2.04125 -5 1 C-3 0 -3 0 0 0 Z " fill="#0A47A0" transform="translate(346,199)"/>
<path d="M0 0 C0.33 0 0.66 0 1 0 C0.67 2.97 0.34 5.94 0 9 C-0.66 9 -1.32 9 -2 9 C-2.33 10.32 -2.66 11.64 -3 13 C-3.66 13 -4.32 13 -5 13 C-5 13.99 -5 14.98 -5 16 C-5.66 16 -6.32 16 -7 16 C-5.35433477 10.31497465 -2.70967216 5.23318364 0 0 Z " fill="#DA9E1E" transform="translate(230,96)"/>
<path d="M0 0 C1.2077558 3.62326739 0.54311128 4.64146369 -1 8 C-1.66 8 -2.32 8 -3 8 C-3.12375 8.7425 -3.2475 9.485 -3.375 10.25 C-3.95486701 12.80141485 -4.73708739 14.7267573 -6 17 C-6.99 17 -7.98 17 -9 17 C-7.51481201 12.95698825 -5.57122002 9.38853744 -3.375 5.6875 C-2.74335938 4.61886719 -2.11171875 3.55023438 -1.4609375 2.44921875 C-0.97882813 1.64097656 -0.49671875 0.83273438 0 0 Z " fill="#0D499B" transform="translate(287,95)"/>
<path d="M0 0 C0.66 0.33 1.32 0.66 2 1 C0.35 3.64 -1.3 6.28 -3 9 C-4.98 8.34 -6.96 7.68 -9 7 C-8.01 5.35 -7.02 3.7 -6 2 C-4.68 2.99 -3.36 3.98 -2 5 C-1.34 3.35 -0.68 1.7 0 0 Z " fill="#DE9B23" transform="translate(219,346)"/>
<path d="M0 0 C0.33 0 0.66 0 1 0 C1 3.66666667 1 7.33333333 1 11 C0.01 10.67 -0.98 10.34 -2 10 C-2.33 10.66 -2.66 11.32 -3 12 C-3.66 12 -4.32 12 -5 12 C-3.68938409 7.76570244 -2.05643741 3.92592596 0 0 Z " fill="#DE9D20" transform="translate(204,149)"/>
<path d="M0 0 C1.2109375 1.546875 1.2109375 1.546875 2 4 C0.99212459 6.60515164 -0.03627093 8.82847536 -1.375 11.25 C-1.71789062 11.8996875 -2.06078125 12.549375 -2.4140625 13.21875 C-3.26183672 14.82010131 -4.12908679 16.41111444 -5 18 C-5.33 18 -5.66 18 -6 18 C-5.55791363 12.47392042 -4.13262507 9.50314854 -1 5 C-0.21784412 2.2717496 -0.21784412 2.2717496 0 0 Z " fill="#0D4896" transform="translate(337,212)"/>
<path d="M0 0 C0.33 0 0.66 0 1 0 C1 1.65 1 3.3 1 5 C0.34 5 -0.32 5 -1 5 C-1 6.65 -1 8.3 -1 10 C-1.99 10.33 -2.98 10.66 -4 11 C-4.33 12.65 -4.66 14.3 -5 16 C-5.66 16 -6.32 16 -7 16 C-5.35433477 10.31497465 -2.70967216 5.23318364 0 0 Z " fill="#D69D2E" transform="translate(222,112)"/>
<path d="M0 0 C1.65 1.65 3.3 3.3 5 5 C3.46126823 8.71860179 2.52488612 9.35633541 -1 12 C-0.67 8.04 -0.34 4.08 0 0 Z " fill="#E09D24" transform="translate(202,312)"/>
<path d="M0 0 C0.33 0.66 0.66 1.32 1 2 C0.00390625 4.3828125 0.00390625 4.3828125 -1.4375 7.125 C-1.91058594 8.03507812 -2.38367188 8.94515625 -2.87109375 9.8828125 C-3.24363281 10.58148438 -3.61617188 11.28015625 -4 12 C-5.76462683 8.91190305 -6 7.76687864 -6 4 C-5.38125 3.896875 -4.7625 3.79375 -4.125 3.6875 C-1.63473516 3.12474627 -1.63473516 3.12474627 0 0 Z " fill="#0949A0" transform="translate(320,250)"/>
<path d="M0 0 C0.33 0.66 0.66 1.32 1 2 C-0.07518118 4.44332726 -1.19808566 6.76754523 -2.4375 9.125 C-2.77587891 9.78371094 -3.11425781 10.44242188 -3.46289062 11.12109375 C-4.30149926 12.75106547 -5.14984811 14.37601909 -6 16 C-7.13583456 12.28272326 -6.66670026 10.52948291 -5 7 C-4.34 7 -3.68 7 -3 7 C-3.061875 6.21625 -3.12375 5.4325 -3.1875 4.625 C-3.125625 3.75875 -3.06375 2.8925 -3 2 C-2.01 1.34 -1.02 0.68 0 0 Z " fill="#0E4794" transform="translate(328,234)"/>
<path d="M0 0 C0.75 1.6875 0.75 1.6875 1 4 C-0.9375 6.75 -0.9375 6.75 -3 9 C-3.33 7.68 -3.66 6.36 -4 5 C-4.66 5 -5.32 5 -6 5 C-6 4.34 -6 3.68 -6 3 C-4.125 1.9375 -4.125 1.9375 -2 1 C-1.34 1.33 -0.68 1.66 0 2 C0 1.34 0 0.68 0 0 Z " fill="#D4992B" transform="translate(220,207)"/>
<path d="M0 0 C0.98120464 3.05263664 0.98120464 4.94736336 0 8 C-0.66 8 -1.32 8 -2 8 C-2 8.99 -2 9.98 -2 11 C-2.66 11 -3.32 11 -4 11 C-4.33 12.32 -4.66 13.64 -5 15 C-5.66 15 -6.32 15 -7 15 C-5.85993252 11.05361258 -4.85598116 8.85598116 -2 6 C-0.79950593 2.89992799 -0.79950593 2.89992799 0 0 Z " fill="#2D537C" transform="translate(239,177)"/>
<path d="M0 0 C0.144375 0.598125 0.28875 1.19625 0.4375 1.8125 C0.8872439 3.56150404 1.42892341 5.28677023 2 7 C1.01 7 0.02 7 -1 7 C-1 7.99 -1 8.98 -1 10 C-1.66 10 -2.32 10 -3 10 C-3 10.99 -3 11.98 -3 13 C-3.66 13 -4.32 13 -5 13 C-4.54554036 11.58208592 -4.08625056 10.16571954 -3.625 8.75 C-3.24214844 7.56664063 -3.24214844 7.56664063 -2.8515625 6.359375 C-2.04826333 4.13372042 -1.10288338 2.09068328 0 0 Z " fill="#D69D2A" transform="translate(242,71)"/>
<path d="M0 0 C0.33 0 0.66 0 1 0 C1 2.64 1 5.28 1 8 C1.66 8.33 2.32 8.66 3 9 C2.01 10.98 1.02 12.96 0 15 C-0.66 14.67 -1.32 14.34 -2 14 C-1.34 9.38 -0.68 4.76 0 0 Z " fill="#1B4D8B" transform="translate(233,417)"/>
<path d="M0 0 C0.33 0.66 0.66 1.32 1 2 C0.00390625 3.9453125 0.00390625 3.9453125 -1.4375 6.125 C-1.91058594 6.84945313 -2.38367188 7.57390625 -2.87109375 8.3203125 C-3.24363281 8.87460937 -3.61617187 9.42890625 -4 10 C-5.4606285 7.35261084 -6 6.10551666 -6 3 C-4.68 3.33 -3.36 3.66 -2 4 C-1.34 2.68 -0.68 1.36 0 0 Z " fill="#D89A28" transform="translate(238,314)"/>
<path d="M0 0 C1.65 0.33 3.3 0.66 5 1 C3.66511872 4.59391114 2.03977277 7.75490696 0 11 C-0.33 9.68 -0.66 8.36 -1 7 C-0.34 7 0.32 7 1 7 C0.67 4.69 0.34 2.38 0 0 Z " fill="#DD9C25" transform="translate(202,368)"/>
<path d="M0 0 C0.33 0 0.66 0 1 0 C1.17942163 3.94727588 1.09350689 6.5980513 -1 10 C-1.99 10 -2.98 10 -4 10 C-2.8905928 6.51329166 -1.73662334 3.22515763 0 0 Z " fill="#D89E2D" transform="translate(148,263)"/>
<path d="M0 0 C0.33 0 0.66 0 1 0 C1.33 2.31 1.66 4.62 2 7 C0.02 7.99 -1.96 8.98 -4 10 C-2.8905928 6.51329166 -1.73662334 3.22515763 0 0 Z " fill="#DC9F22" transform="translate(213,131)"/>
<path d="M0 0 C2.475 0.99 2.475 0.99 5 2 C3.25 6.875 3.25 6.875 1 8 C0.67 5.36 0.34 2.72 0 0 Z " fill="#D39A2B" transform="translate(208,221)"/>
<path d="M0 0 C0.33 0.66 0.66 1.32 1 2 C-0.73397418 5.65047197 -2.19333016 7.55609075 -6 9 C-5.67 7.35 -5.34 5.7 -5 4 C-4.01 3.67 -3.02 3.34 -2 3 C-1.34 2.01 -0.68 1.02 0 0 Z " fill="#D09834" transform="translate(206,233)"/>
<path d="M0 0 C0.99 0 1.98 0 3 0 C1.25 5.75 1.25 5.75 -1 8 C-1.125 2.25 -1.125 2.25 0 0 Z " fill="#0C4798" transform="translate(260,369)"/>
<path d="M0 0 C1.65 0 3.3 0 5 0 C3.68 2.64 2.36 5.28 1 8 C0.02391783 5.07175348 -0.08226668 3.04386724 0 0 Z " fill="#DD9C2A" transform="translate(210,356)"/>
<path d="M0 0 C0.33 0.66 0.66 1.32 1 2 C0.22265625 3.7265625 0.22265625 3.7265625 -0.9375 5.625 C-1.618125 6.73875 -2.29875 7.8525 -3 9 C-3.33 9 -3.66 9 -4 9 C-4.25 6.75 -4.25 6.75 -4 4 C-2 1.6875 -2 1.6875 0 0 Z " fill="#DD9B24" transform="translate(225,336)"/>
<path d="M0 0 C1.231394 3.69418201 0.64432764 6.2056261 0 10 C-0.33 9.01 -0.66 8.02 -1 7 C-1.66 7 -2.32 7 -3 7 C-1.125 1.125 -1.125 1.125 0 0 Z " fill="#D5A441" transform="translate(258,40)"/>
<path d="M0 0 C1 2 1 2 0.25 4.5 C-1 7 -1 7 -4 9 C-2.94124926 5.59687262 -1.99097846 2.98646769 0 0 Z " fill="#355573" transform="translate(231,192)"/>
<path d="M0 0 C1.231394 3.69418201 0.64432764 6.2056261 0 10 C-1.625 8.3125 -1.625 8.3125 -3 6 C-2.33228817 3.60736593 -1.77902615 1.77902615 0 0 Z " fill="#1E4A8E" transform="translate(298,77)"/>
</svg>
