<?xml version="1.0" encoding="UTF-8"?>
<svg version="1.1" xmlns="http://www.w3.org/2000/svg" width="429" height="295">
<path d="M0 0 C141.57 0 283.14 0 429 0 C429 97.35 429 194.7 429 295 C287.43 295 145.86 295 0 295 C0 197.65 0 100.3 0 0 Z " fill="#FEFEFE" transform="translate(0,0)"/>
<path d="M0 0 C0.33 0 0.66 0 1 0 C0.26466773 8.11449727 -0.78206626 16.17684211 -1.875 24.25 C-2.05397019 25.57851891 -2.23284269 26.90705097 -2.41162109 28.2355957 C-2.77021381 30.89824057 -3.12988374 33.56073704 -3.49023438 36.22314453 C-3.95093635 39.63648723 -4.4063446 43.05047604 -4.859375 46.46484375 C-5.1144533 48.37241323 -5.36965292 50.27996648 -5.625 52.1875 C-5.73569824 53.02764648 -5.84639648 53.86779297 -5.96044922 54.73339844 C-6.78963133 60.87649207 -7.88774484 66.8825966 -9 73 C3.87 73 16.74 73 30 73 C25.01004985 83.6565037 19.91229696 94.2379314 14.625 104.75 C10.53776816 112.87719194 6.52027257 121.02907013 2.625 129.25 C-1.93990335 138.87969993 -6.68617026 148.41257686 -11.47192383 157.93359375 C-16.1527853 167.25043335 -20.72527968 176.6108208 -25.19458008 186.03149414 C-29.33709465 194.75145979 -33.64410217 203.38500207 -38 212 C-38.33 212 -38.66 212 -39 212 C-38.21114518 204.58614344 -37.25320459 197.20123507 -36.2578125 189.8125 C-36.08877411 188.55598633 -35.91973572 187.29947266 -35.74557495 186.00488281 C-35.38812382 183.35229162 -35.03012449 180.69978018 -34.67138672 178.04736328 C-34.30861641 175.36372057 -33.94798153 172.67980509 -33.58935547 169.99560547 C-30.20041256 144.63729066 -30.20041256 144.63729066 -28.3671875 134.625 C-26.96329345 126.79528232 -25.98664464 118.89315715 -25 111 C-37.87 111 -50.74 111 -64 111 C-62.51490554 107.28726385 -61.06559659 104.19194965 -59.0859375 100.7734375 C-58.498125 99.75572266 -57.9103125 98.73800781 -57.3046875 97.68945312 C-56.66789062 96.59568359 -56.03109375 95.50191406 -55.375 94.375 C-54.70298459 93.21557616 -54.03111234 92.05606934 -53.359375 90.89648438 C-47.96519267 81.59955913 -42.48247491 72.35554489 -36.98828125 63.11743164 C-31.13834981 53.26839051 -25.41064995 43.35165718 -19.69921875 33.421875 C-15.8833288 26.78961601 -12.04055244 20.17322713 -8.1875 13.5625 C-7.59437012 12.54325439 -7.00124023 11.52400879 -6.39013672 10.47387695 C-5.56860107 9.06561646 -5.56860107 9.06561646 -4.73046875 7.62890625 C-4.24989014 6.80463135 -3.76931152 5.98035645 -3.27416992 5.13110352 C-2.23300282 3.38970715 -1.12543875 1.68815812 0 0 Z " fill="#024BAD" transform="translate(115,63)"/>
<path d="M0 0 C0.33 0 0.66 0 1 0 C0.88291924 1.93799467 0.75579489 3.87538257 0.625 5.8125 C0.55539063 6.89144531 0.48578125 7.97039063 0.4140625 9.08203125 C0.09403799 12.11018768 -0.35510337 14.95251193 -0.93945312 17.93041992 C-2.10877104 24.26924183 -2.74743722 30.62073512 -3.3828125 37.03125 C-8.82300342 87.87796508 -8.82300342 87.87796508 -23.89550781 107.1640625 C-27.75782302 112.36877868 -30.80984147 118.05646199 -34 123.6875 C-35.98 127.090625 -37.96 130.49375 -40 134 C-27.13 134 -14.26 134 -1 134 C-1 146.85821343 -3.00479074 154.00278973 -9.625 164.9375 C-10.63037271 166.63801824 -11.63574275 168.33853808 -12.64097595 170.03913879 C-13.69521793 171.81647205 -14.7564079 173.58947065 -15.81982422 175.36132812 C-18.03261075 179.04918126 -20.22327622 182.74986603 -22.41015625 186.453125 C-25.14450072 191.08152879 -27.88683633 195.7050185 -30.63671875 200.32421875 C-33.13447092 204.52607693 -35.59515709 208.74434129 -38 213 C-38.33 213 -38.66 213 -39 213 C-38.23167714 204.72873222 -37.22532771 196.4911355 -36.1875 188.25 C-36.10173706 187.56566895 -36.01597412 186.88133789 -35.9276123 186.17626953 C-34.03812803 171.10573596 -32.0263386 156.05280101 -30 141 C-42.54 141 -55.08 141 -68 141 C-66.55742377 136.6722713 -65.16479813 133.1016958 -63.12890625 129.09765625 C-62.56042969 127.97230469 -61.99195313 126.84695312 -61.40625 125.6875 C-61.10589844 125.09710938 -60.80554688 124.50671875 -60.49609375 123.8984375 C-58.89551103 120.75084805 -57.30887766 117.59625168 -55.72265625 114.44140625 C-55.40297882 113.80598907 -55.08330139 113.1705719 -54.75393677 112.51589966 C-51.92553431 106.88020561 -49.19719613 101.19961065 -46.5 95.5 C-42.15694981 86.33546217 -37.65013122 77.25894019 -33.09423828 68.19873047 C-28.68988208 59.43527645 -24.40133566 50.62607382 -20.20336914 41.76220703 C-15.80587216 32.51327789 -11.21162147 23.36497245 -6.59375 14.22460938 C-6.02527344 13.09603516 -5.45679688 11.96746094 -4.87109375 10.8046875 C-4.11203735 9.30397705 -4.11203735 9.30397705 -3.33764648 7.77294922 C-2.1043839 5.21638846 -1.01702185 2.64891677 0 0 Z " fill="#E49D13" transform="translate(91,40)"/>
<path d="M0 0 C4.62 0 9.24 0 14 0 C14 4.62 14 9.24 14 14 C14.66 14 15.32 14 16 14 C16 9.38 16 4.76 16 0 C17.98 0 19.96 0 22 0 C23.5220959 1.5220959 23.12959521 2.88210082 23.1328125 5 C23.13474609 6.2065625 23.13474609 6.2065625 23.13671875 7.4375 C23.13285156 8.283125 23.12898438 9.12875 23.125 10 C23.13080078 11.2684375 23.13080078 11.2684375 23.13671875 12.5625 C23.13542969 13.366875 23.13414062 14.17125 23.1328125 15 C23.13168457 15.7425 23.13055664 16.485 23.12939453 17.25 C23 19 23 19 22 20 C17.66469082 20.14393457 13.33842269 20.04212061 9 20 C8.67 15.71 8.34 11.42 8 7 C7.67 7 7.34 7 7 7 C6.67 11.29 6.34 15.58 6 20 C4.02 20 2.04 20 0 20 C0 13.4 0 6.8 0 0 Z " fill="#120F16" transform="translate(183,137)"/>
<path d="M0 0 C2.79192205 -0.05380578 5.5828141 -0.09357669 8.375 -0.125 C9.1690625 -0.14175781 9.963125 -0.15851563 10.78125 -0.17578125 C12.85492015 -0.19335473 14.92883241 -0.10335168 17 0 C19 2 19 2 19.125 4.625 C19.08375 5.40875 19.0425 6.1925 19 7 C18.01 7.33 17.02 7.66 16 8 C16 8.66 16 9.32 16 10 C16.99 10.33 17.98 10.66 19 11 C19 13.64 19 16.28 19 19 C17.00045254 19.04254356 14.99958364 19.04080783 13 19 C12 18 12 18 11.9375 14.4375 C11.958125 13.303125 11.97875 12.16875 12 11 C10.35 11 8.7 11 7 11 C7.020625 12.134375 7.04125 13.26875 7.0625 14.4375 C7 18 7 18 6 19 C3.5 19.125 3.5 19.125 1 19 C0 18 0 18 -0.11352539 16.23413086 C-0.10828857 15.48526611 -0.10305176 14.73640137 -0.09765625 13.96484375 C-0.09443359 13.15595703 -0.09121094 12.34707031 -0.08789062 11.51367188 C-0.07951172 10.66353516 -0.07113281 9.81339844 -0.0625 8.9375 C-0.05798828 8.08349609 -0.05347656 7.22949219 -0.04882812 6.34960938 C-0.03700373 4.23304337 -0.01906769 2.11651315 0 0 Z " fill="#1B1819" transform="translate(237,138)"/>
<path d="M0 0 C2.578125 -0.061875 5.15625 -0.12375 7.8125 -0.1875 C9.02450073 -0.22846802 9.02450073 -0.22846802 10.26098633 -0.27026367 C15.50665462 -0.33146643 15.50665462 -0.33146643 18 1.34375 C19.374026 3.61948056 19.21116712 5.39560558 19 8 C17.68 8.33 16.36 8.66 15 9 C15 9.66 15 10.32 15 11 C16.32 11.33 17.64 11.66 19 12 C19 14.31 19 16.62 19 19 C16.69 19 14.38 19 12 19 C12 16.69 12 14.38 12 12 C10.35 12.33 8.7 12.66 7 13 C6.67 14.98 6.34 16.96 6 19 C4.02 19 2.04 19 0 19 C0 12.73 0 6.46 0 0 Z " fill="#1A1518" transform="translate(218,102)"/>
<path d="M0 0 C5.94 0 11.88 0 18 0 C18.33 1.65 18.66 3.3 19 5 C15.04 5 11.08 5 7 5 C7 5.99 7 6.98 7 8 C10.63 8 14.26 8 18 8 C18 9.32 18 10.64 18 12 C14.37 12 10.74 12 7 12 C7 12.99 7 13.98 7 15 C10.96 15 14.92 15 19 15 C18.67 16.65 18.34 18.3 18 20 C12.06 20 6.12 20 0 20 C0 13.4 0 6.8 0 0 Z " fill="#151116" transform="translate(212,137)"/>
<path d="M0 0 C2.59875 -0.04125 5.1975 -0.0825 7.875 -0.125 C8.69210449 -0.14320801 9.50920898 -0.16141602 10.35107422 -0.18017578 C12.23495049 -0.19477217 14.11869312 -0.09943482 16 0 C18 2 18 2 18.125 5.125 C18.08375 6.07375 18.0425 7.0225 18 8 C17.01 8 16.02 8 15 8 C15 8.99 15 9.98 15 11 C15.99 11 16.98 11 18 11 C18 13.64 18 16.28 18 19 C16.02 19 14.04 19 12 19 C12 16.69 12 14.38 12 12 C10.02 12 8.04 12 6 12 C6 14.31 6 16.62 6 19 C4.02 19 2.04 19 0 19 C0 12.73 0 6.46 0 0 Z " fill="#0D0C0F" transform="translate(196,172)"/>
<path d="M0 0 C0.74958984 0.01353516 1.49917969 0.02707031 2.27148438 0.04101562 C4.11879767 0.07631461 5.96574066 0.13012083 7.8125 0.1875 C7.4825 1.8375 7.1525 3.4875 6.8125 5.1875 C3.1825 5.1875 -0.4475 5.1875 -4.1875 5.1875 C-4.1875 5.8475 -4.1875 6.5075 -4.1875 7.1875 C-3.57261719 7.15269531 -2.95773438 7.11789063 -2.32421875 7.08203125 C-1.51597656 7.05496094 -0.70773438 7.02789062 0.125 7 C1.32576172 6.94779297 1.32576172 6.94779297 2.55078125 6.89453125 C4.8125 7.1875 4.8125 7.1875 6.58203125 8.51171875 C8.4816714 11.09884772 8.20130875 13.07702999 7.8125 16.1875 C6.80078125 17.86328125 6.80078125 17.86328125 4.8125 19.1875 C2.00122957 19.40464241 -0.5758345 19.47034276 -3.375 19.375 C-4.12458984 19.36146484 -4.87417969 19.34792969 -5.64648438 19.33398438 C-7.49379767 19.29868539 -9.34074066 19.24487917 -11.1875 19.1875 C-10.8575 17.5375 -10.5275 15.8875 -10.1875 14.1875 C-6.5575 14.1875 -2.9275 14.1875 0.8125 14.1875 C0.8125 13.5275 0.8125 12.8675 0.8125 12.1875 C0.19761719 12.22230469 -0.41726562 12.25710937 -1.05078125 12.29296875 C-2.26314453 12.33357422 -2.26314453 12.33357422 -3.5 12.375 C-4.70076172 12.42720703 -4.70076172 12.42720703 -5.92578125 12.48046875 C-8.1875 12.1875 -8.1875 12.1875 -9.95703125 10.86328125 C-11.8566714 8.27615228 -11.57630875 6.29797001 -11.1875 3.1875 C-8.65182031 -1.01252543 -4.34940067 -0.14814553 0 0 Z " fill="#0E0C0D" transform="translate(254.1875,101.8125)"/>
<path d="M0 0 C6.27 0 12.54 0 19 0 C19 1.32 19 2.64 19 4 C15.04 4 11.08 4 7 4 C7 4.99 7 5.98 7 7 C10.63 7 14.26 7 18 7 C18 8.32 18 9.64 18 11 C14.37 11 10.74 11 7 11 C7 11.99 7 12.98 7 14 C10.96 14 14.92 14 19 14 C19 15.65 19 17.3 19 19 C12.73 19 6.46 19 0 19 C0 12.73 0 6.46 0 0 Z " fill="#0C070A" transform="translate(323,103)"/>
<path d="M0 0 C6.27 0 12.54 0 19 0 C19 1.32 19 2.64 19 4 C18.14535156 4.04898438 17.29070312 4.09796875 16.41015625 4.1484375 C15.30542969 4.22320312 14.20070312 4.29796875 13.0625 4.375 C11.96035156 4.44460937 10.85820312 4.51421875 9.72265625 4.5859375 C8.82417969 4.72257813 7.92570313 4.85921875 7 5 C6.67 5.66 6.34 6.32 6 7 C9.96 7 13.92 7 18 7 C18 8.32 18 9.64 18 11 C14.37 11 10.74 11 7 11 C7 11.99 7 12.98 7 14 C10.96 14 14.92 14 19 14 C18.67 15.65 18.34 17.3 18 19 C12.06 19 6.12 19 0 19 C0 12.73 0 6.46 0 0 Z " fill="#08080C" transform="translate(158,138)"/>
<path d="M0 0 C2.2265625 1.0859375 2.2265625 1.0859375 4 3 C4.49609375 6.25 4.49609375 6.25 4.4375 10 C4.43621094 11.2375 4.43492187 12.475 4.43359375 13.75 C4 17 4 17 2.75390625 18.9140625 C0.53642898 20.2870217 -0.9014337 20.40098566 -3.5 20.375 C-4.2734375 20.38273437 -5.046875 20.39046875 -5.84375 20.3984375 C-8 20 -8 20 -9.7578125 18.9140625 C-11.65712834 15.98744375 -11.39654419 13.44707038 -11.375 10 C-11.38273438 8.7625 -11.39046875 7.525 -11.3984375 6.25 C-11 3 -11 3 -9.72265625 1.0859375 C-6.76898902 -0.77601146 -3.33298268 -0.65252252 0 0 Z " fill="#1B171A" transform="translate(232,171)"/>
<path d="M0 0 C1.5675 -0.04125 3.135 -0.0825 4.75 -0.125 C5.63171875 -0.14820312 6.5134375 -0.17140625 7.421875 -0.1953125 C10.14906426 0.01129275 11.71315408 0.52694159 14 2 C15.35550385 4.7110077 15.16917207 6.91339169 15.1875 9.9375 C15.20167969 10.99839844 15.21585937 12.05929688 15.23046875 13.15234375 C15 16 15 16 13 19 C8.64352194 19.41996896 4.38442431 19.12895366 0 19 C0 12.73 0 6.46 0 0 Z " fill="#161A20" transform="translate(302,102)"/>
<path d="M0 0 C0.70189453 0.01353516 1.40378906 0.02707031 2.12695312 0.04101562 C3.85579829 0.07629818 5.58424765 0.13010417 7.3125 0.1875 C7.3125 1.8375 7.3125 3.4875 7.3125 5.1875 C3.3525 5.1875 -0.6075 5.1875 -4.6875 5.1875 C-4.6875 5.8475 -4.6875 6.5075 -4.6875 7.1875 C-4.08421875 7.14109375 -3.4809375 7.0946875 -2.859375 7.046875 C3.61314755 6.75456753 3.61314755 6.75456753 6.9375 8.8125 C8.3125 11.1875 8.3125 11.1875 8.1875 14.3125 C7.3125 17.1875 7.3125 17.1875 5.3125 19.1875 C2.56764407 19.33257695 -0.07230543 19.37402423 -2.8125 19.3125 C-3.56660156 19.30347656 -4.32070312 19.29445313 -5.09765625 19.28515625 C-6.96107254 19.2615687 -8.82432593 19.22569719 -10.6875 19.1875 C-10.6875 17.8675 -10.6875 16.5475 -10.6875 15.1875 C-6.7275 15.1875 -2.7675 15.1875 1.3125 15.1875 C1.3125 14.1975 1.3125 13.2075 1.3125 12.1875 C0.61382812 12.21070312 -0.08484375 12.23390625 -0.8046875 12.2578125 C-1.71476563 12.27585937 -2.62484375 12.29390625 -3.5625 12.3125 C-4.46742187 12.33570312 -5.37234375 12.35890625 -6.3046875 12.3828125 C-8.6875 12.1875 -8.6875 12.1875 -10.6875 10.1875 C-11.24100773 4.09891498 -11.24100773 4.09891498 -9.6484375 1.4765625 C-6.61657014 -0.51649772 -3.49579463 -0.12729784 0 0 Z " fill="#0A0809" transform="translate(131.6875,102.8125)"/>
<path d="M0 0 C5.94 0 11.88 0 18 0 C18 1.65 18 3.3 18 5 C14.04 5 10.08 5 6 5 C6.33 5.66 6.66 6.32 7 7 C9.35599235 7.46751788 9.35599235 7.46751788 12.0625 7.625 C12.98160156 7.69976562 13.90070313 7.77453125 14.84765625 7.8515625 C15.55792969 7.90054688 16.26820313 7.94953125 17 8 C17 9.32 17 10.64 17 12 C13.37 12 9.74 12 6 12 C6.33 12.66 6.66 13.32 7 14 C9.58605332 14.4683265 9.58605332 14.4683265 12.5625 14.625 C13.57441406 14.69976562 14.58632812 14.77453125 15.62890625 14.8515625 C16.80259766 14.92503906 16.80259766 14.92503906 18 15 C18 16.32 18 17.64 18 19 C12.06 19 6.12 19 0 19 C0 12.73 0 6.46 0 0 Z " fill="#010102" transform="translate(193,102)"/>
<path d="M0 0 C3.6196875 -0.0928125 3.6196875 -0.0928125 7.3125 -0.1875 C8.44619019 -0.22846802 8.44619019 -0.22846802 9.6027832 -0.27026367 C12.48623131 -0.30617644 14.51469033 -0.31902827 16.9609375 1.2890625 C18.69638352 4.14667662 18.29449364 6.76056998 18 10 C15.60236815 12.39763185 14.66726502 12.34280586 11.375 12.625 C10.55773437 12.69976562 9.74046875 12.77453125 8.8984375 12.8515625 C8.27195313 12.90054688 7.64546875 12.94953125 7 13 C6.67 15.31 6.34 17.62 6 20 C4.02 20 2.04 20 0 20 C0 13.4 0 6.8 0 0 Z " fill="#131419" transform="translate(168,102)"/>
<path d="M0 0 C2.59875 -0.04125 5.1975 -0.0825 7.875 -0.125 C8.69210449 -0.14320801 9.50920898 -0.16141602 10.35107422 -0.18017578 C12.23495049 -0.19477217 14.11869312 -0.09943482 16 0 C18.32528287 2.32528287 18.29511025 2.84665898 18.3125 6 C18.32925781 6.70125 18.34601563 7.4025 18.36328125 8.125 C18.24339844 8.74375 18.12351562 9.3625 18 10 C14.79619983 12.13586678 13.98060033 12.23132175 10.3125 12.125 C9.50425781 12.10695312 8.69601562 12.08890625 7.86328125 12.0703125 C6.94095703 12.03550781 6.94095703 12.03550781 6 12 C6 14.31 6 16.62 6 19 C4.02 19 2.04 19 0 19 C0 12.73 0 6.46 0 0 Z " fill="#0D0D10" transform="translate(264,172)"/>
<path d="M0 0 C2.31 0 4.62 0 7 0 C7.33 4.29 7.66 8.58 8 13 C8.33 8.71 8.66 4.42 9 0 C10.98 0 12.96 0 15 0 C15.0809313 2.60478883 15.14045434 5.20706653 15.1875 7.8125 C15.22520508 8.91948242 15.22520508 8.91948242 15.26367188 10.04882812 C15.33706355 15.45534811 15.33706355 15.45534811 13.76953125 17.98828125 C11.5451895 19.26003514 10.05640954 19.4005641 7.5 19.375 C6.7265625 19.38273437 5.953125 19.39046875 5.15625 19.3984375 C3 19 3 19 1.23046875 17.98828125 C-0.74029296 14.80378058 -0.31081046 11.43276849 -0.1875 7.8125 C-0.17396484 7.06291016 -0.16042969 6.31332031 -0.14648438 5.54101562 C-0.11118539 3.69370233 -0.05737917 1.84675934 0 0 Z " fill="#0D0B0B" transform="translate(242,172)"/>
<path d="M0 0 C1.77503906 0.03480469 1.77503906 0.03480469 3.5859375 0.0703125 C5.36871094 0.09738281 5.36871094 0.09738281 7.1875 0.125 C8.10273438 0.14820313 9.01796875 0.17140625 9.9609375 0.1953125 C9.6309375 1.8453125 9.3009375 3.4953125 8.9609375 5.1953125 C6.3209375 5.1953125 3.6809375 5.1953125 0.9609375 5.1953125 C0.9609375 7.8353125 0.9609375 10.4753125 0.9609375 13.1953125 C1.6209375 13.1953125 2.2809375 13.1953125 2.9609375 13.1953125 C2.9609375 11.2153125 2.9609375 9.2353125 2.9609375 7.1953125 C4.96048496 7.15276894 6.96135386 7.15450467 8.9609375 7.1953125 C9.9609375 8.1953125 9.9609375 8.1953125 10.09375 10.4453125 C10.09117187 11.3528125 10.08859375 12.2603125 10.0859375 13.1953125 C10.08851563 14.1028125 10.09109375 15.0103125 10.09375 15.9453125 C9.9609375 18.1953125 9.9609375 18.1953125 8.9609375 19.1953125 C7.1737318 19.34667194 5.37931874 19.41707028 3.5859375 19.4453125 C2.60882813 19.47109375 1.63171875 19.496875 0.625 19.5234375 C-2.0390625 19.1953125 -2.0390625 19.1953125 -3.87109375 18.12109375 C-5.66871818 15.15711768 -5.39762243 12.55896246 -5.3515625 9.1328125 C-5.34769531 7.88371094 -5.34382813 6.63460937 -5.33984375 5.34765625 C-4.93592962 1.1144263 -4.27008509 0.27442706 0 0 Z " fill="#0C0F15" transform="translate(268.0390625,137.8046875)"/>
<path d="M0 0 C1.98 0 3.96 0 6 0 C6 4.29 6 8.58 6 13 C6.99 13 7.98 13 9 13 C9 8.71 9 4.42 9 0 C10.98 0 12.96 0 15 0 C15.0809313 2.60478883 15.14045434 5.20706653 15.1875 7.8125 C15.22520508 8.91948242 15.22520508 8.91948242 15.26367188 10.04882812 C15.33707776 15.45639523 15.33707776 15.45639523 13.76953125 17.984375 C11.55315319 19.25646837 10.05110758 19.43324815 7.5 19.4375 C6.33984375 19.46650391 6.33984375 19.46650391 5.15625 19.49609375 C3 19 3 19 1.23046875 17.45703125 C-0.46602841 14.06942264 -0.32363586 10.9431214 -0.1875 7.25 C-0.17396484 6.55261719 -0.16042969 5.85523437 -0.14648438 5.13671875 C-0.1112945 3.42414459 -0.05749155 1.71197059 0 0 Z " fill="#0C040B" transform="translate(146,103)"/>
<path d="M0 0 C1.08667969 0.02707031 2.17335937 0.05414063 3.29296875 0.08203125 C4.54013672 0.13423828 4.54013672 0.13423828 5.8125 0.1875 C5.8125 1.8375 5.8125 3.4875 5.8125 5.1875 C3.1725 5.5175 0.5325 5.8475 -2.1875 6.1875 C-2.5175 8.8275 -2.8475 11.4675 -3.1875 14.1875 C-2.1975 14.1875 -1.2075 14.1875 -0.1875 14.1875 C-0.1875 12.2075 -0.1875 10.2275 -0.1875 8.1875 C1.7925 8.1875 3.7725 8.1875 5.8125 8.1875 C5.8125 11.8175 5.8125 15.4475 5.8125 19.1875 C3.68811661 19.26828641 1.5628677 19.32659141 -0.5625 19.375 C-1.74585938 19.40980469 -2.92921875 19.44460937 -4.1484375 19.48046875 C-5.65277344 19.33544922 -5.65277344 19.33544922 -7.1875 19.1875 C-9.55934142 15.62973788 -9.48574394 13.90729393 -9.5 9.6875 C-9.51675781 8.5428125 -9.53351563 7.398125 -9.55078125 6.21875 C-9.1875 3.1875 -9.1875 3.1875 -8.0546875 1.29296875 C-5.32962012 -0.32040796 -3.13549775 -0.10114509 0 0 Z " fill="#0C0406" transform="translate(183.1875,171.8125)"/>
<path d="M0 0 C2.31 0 4.62 0 7 0 C7 1.98 7 3.96 7 6 C7.66 6 8.32 6 9 6 C9 4.02 9 2.04 9 0 C10.98 0 12.96 0 15 0 C15 3.63 15 7.26 15 11 C13.68 11 12.36 11 11 11 C11 13.64 11 16.28 11 19 C8.69 19 6.38 19 4 19 C4 16.36 4 13.72 4 11 C2.68 10.67 1.36 10.34 0 10 C0 6.7 0 3.4 0 0 Z " fill="#120F0F" transform="translate(284,138)"/>
<path d="M0 0 C2.31 0 4.62 0 7 0 C7 4.62 7 9.24 7 14 C9.31 14 11.62 14 14 14 C14 15.65 14 17.3 14 19 C9.38 19 4.76 19 0 19 C0 12.73 0 6.46 0 0 Z " fill="#131011" transform="translate(268,102)"/>
<path d="M0 0 C1.98 0 3.96 0 6 0 C6 6.27 6 12.54 6 19 C4.02 19 2.04 19 0 19 C0 12.73 0 6.46 0 0 Z " fill="#030310" transform="translate(289,102)"/>
<path d="M0 0 C1.134375 0.020625 2.26875 0.04125 3.4375 0.0625 C3.4375 0.7225 3.4375 1.3825 3.4375 2.0625 C2.1175 2.3925 0.7975 2.7225 -0.5625 3.0625 C-0.8925 5.0425 -1.2225 7.0225 -1.5625 9.0625 C-2.5525 9.0625 -3.5425 9.0625 -4.5625 9.0625 C-4.66015625 2.91015625 -4.66015625 2.91015625 -4.5625 1.0625 C-3.5625 0.0625 -3.5625 0.0625 0 0 Z " fill="#ADC0C2" transform="translate(184.5625,176.9375)"/>
<path d="M0 0 C0.66 0.33 1.32 0.66 2 1 C2 4.96 2 8.92 2 13 C1.01 13 0.02 13 -1 13 C-1.02686553 11.02090602 -1.04633375 9.04171029 -1.0625 7.0625 C-1.07410156 5.96035156 -1.08570313 4.85820312 -1.09765625 3.72265625 C-1 1 -1 1 0 0 Z " fill="#BBC3BA" transform="translate(190,143)"/>
<path d="M0 0 C3.63 0 7.26 0 11 0 C11 0.99 11 1.98 11 3 C7.37 3 3.74 3 0 3 C0 2.01 0 1.02 0 0 Z " fill="#D2D5D7" transform="translate(219,142)"/>
<path d="M0 0 C0.33 0 0.66 0 1 0 C0.67 4.29 0.34 8.58 0 13 C-0.99 11.68 -1.98 10.36 -3 9 C-2.63671875 6.640625 -2.63671875 6.640625 -1.6875 4.25 C-1.38199219 3.45078125 -1.07648438 2.6515625 -0.76171875 1.828125 C-0.51035156 1.22484375 -0.25898437 0.6215625 0 0 Z " fill="#EBB44B" transform="translate(91,40)"/>
<path d="M0 0 C1.37432457 3.81756824 0.67975039 7.07255329 0 11 C-1.625 9.3125 -1.625 9.3125 -3 7 C-2.25 4.375 -2.25 4.375 -1 2 C-0.67 1.34 -0.34 0.68 0 0 Z " fill="#C4D0DE" transform="translate(87,193)"/>
</svg>
